<svg width="160" height="42" viewBox="0 0 160 42" fill="none" xmlns="http://www.w3.org/2000/svg">
<g clip-path="url(#clip0_1_856)">
<mask id="mask0_1_856" style="mask-type:luminance" maskUnits="userSpaceOnUse" x="0" y="0" width="160" height="42">
<path d="M0 0H160V42H0V0Z" fill="white"/>
</mask>
<g mask="url(#mask0_1_856)">
<path d="M17.2469 33.4643C17.2458 33.4349 17.237 33.4063 17.2214 33.3814C17.2058 33.3564 17.184 33.336 17.158 33.3222L10.3434 29.9541C10.3199 29.9426 10.2938 29.9373 10.2676 29.9387C10.2415 29.9401 10.2161 29.9482 10.1939 29.9622C10.1715 29.977 10.153 29.997 10.1399 30.0205C10.1269 30.0439 10.1196 30.0702 10.1188 30.097V36.8849C10.1188 36.9374 10.1487 36.9899 10.1939 37.0198C10.2186 37.0351 10.2473 37.043 10.2764 37.0424C10.2994 37.0408 10.322 37.0357 10.3434 37.027L17.1572 33.6073C17.1834 33.5935 17.2055 33.573 17.2213 33.5479C17.237 33.5228 17.2459 33.4939 17.2469 33.4643ZM8.32727 10.0275C8.35033 10.0416 8.36936 10.0615 8.38252 10.0851C8.39568 10.1087 8.40254 10.1353 8.40242 10.1624V16.8226C8.40242 16.8751 8.37253 16.9276 8.32727 16.9575C8.30255 16.9728 8.27393 16.9807 8.24485 16.9801C8.22303 16.9801 8.2004 16.972 8.17778 16.9648L1.37939 13.6573C1.35251 13.6444 1.32977 13.6243 1.31377 13.5991C1.29777 13.574 1.28915 13.5449 1.28889 13.5151C1.2883 13.485 1.29656 13.4555 1.31265 13.43C1.32874 13.4046 1.35195 13.3845 1.37939 13.3722L8.17778 10.0122C8.22779 9.99859 8.28106 10.0041 8.32727 10.0275ZM8.17778 19.9645L1.36404 23.4376C1.33878 23.4517 1.31779 23.4724 1.30328 23.4974C1.28878 23.5224 1.28129 23.5509 1.28162 23.5798C1.28162 23.6395 1.3196 23.6928 1.37131 23.7147L8.18505 26.9923C8.2042 26.9991 8.22457 27.0019 8.24485 27.0003C8.27475 27.0003 8.30545 26.9923 8.32727 26.9769C8.34968 26.9621 8.36819 26.9421 8.38127 26.9186C8.39434 26.8952 8.4016 26.8689 8.40242 26.842V20.1002C8.40173 20.0732 8.39453 20.0468 8.38145 20.0232C8.36837 19.9996 8.34979 19.9795 8.32727 19.9645C8.28283 19.9427 8.22222 19.9347 8.17778 19.9645ZM0.157576 12.0524C0.180202 12.0524 0.20202 12.0443 0.224646 12.037L7.06828 8.6625C7.09514 8.64947 7.11779 8.62916 7.13365 8.60388C7.14951 8.5786 7.15794 8.54938 7.15798 8.51954C7.1583 8.49063 7.15082 8.46216 7.13631 8.43714C7.12181 8.41212 7.10082 8.39148 7.07555 8.37739L0.224646 4.88977C0.20111 4.87825 0.175015 4.87295 0.148847 4.87436C0.122679 4.87578 0.097309 4.88386 0.0751515 4.89785C0.0528571 4.91261 0.0344084 4.93247 0.0213378 4.95579C0.00826721 4.97911 0.000952053 5.00521 0 5.03192L0 11.8949C0 11.9474 0.029899 11.9999 0.0751515 12.0298C0.0998763 12.0451 0.128496 12.0529 0.157576 12.0524ZM7.12081 28.4776C7.1198 28.448 7.11097 28.4192 7.09522 28.3941C7.07947 28.369 7.05735 28.3485 7.03111 28.3347L0.224646 25.0716C0.200659 25.0603 0.174212 25.0553 0.147755 25.0569C0.121298 25.0586 0.0956845 25.0669 0.0732869 25.081C0.0508892 25.0952 0.0324309 25.1148 0.0196205 25.138C0.00681007 25.1612 6.16789e-05 25.1872 0 25.2137L0 31.92C0 31.9725 0.029899 32.025 0.0751515 32.0549C0.0998763 32.0702 0.128496 32.078 0.157576 32.0775C0.180604 32.076 0.203242 32.0708 0.224646 32.0622L7.03111 28.627C7.05839 28.6129 7.08117 28.5914 7.09688 28.565C7.11258 28.5386 7.12059 28.5083 7.12 28.4776H7.12081ZM8.17778 29.9694L1.34949 33.4126C1.32423 33.4267 1.30324 33.4474 1.28874 33.4724C1.27423 33.4974 1.26675 33.5259 1.26707 33.5548C1.26707 33.6145 1.30424 33.6678 1.35596 33.6977L8.18505 37.0416C8.20666 37.0506 8.22958 37.056 8.25293 37.0577C8.29472 37.0577 8.3348 37.0411 8.36435 37.0116C8.3939 36.9821 8.41051 36.942 8.41051 36.9002V30.1124C8.40968 30.0855 8.40243 30.0593 8.38935 30.0358C8.37627 30.0123 8.35776 29.9923 8.33535 29.9775C8.31175 29.9634 8.28505 29.9552 8.25757 29.9538C8.2301 29.9524 8.2027 29.9578 8.17778 29.9694ZM0.157576 22.1025C0.180604 22.101 0.203242 22.0958 0.224646 22.0872L7.05293 18.6076C7.07846 18.5936 7.0997 18.5728 7.11436 18.5477C7.12902 18.5225 7.13655 18.4938 7.13616 18.4647C7.13494 18.4351 7.12592 18.4064 7.11003 18.3814C7.09414 18.3565 7.07193 18.3361 7.04566 18.3225L0.226263 15.0069C0.202275 14.9956 0.175828 14.9906 0.149371 14.9922C0.122914 14.9939 0.0973007 15.0022 0.074903 15.0164C0.0525054 15.0305 0.034047 15.0501 0.0212366 15.0733C0.00842623 15.0965 0.00167784 15.1226 0.00161616 15.1491V21.9442C0.00201039 21.971 0.00899581 21.9974 0.0219586 22.0209C0.0349214 22.0444 0.0534649 22.0644 0.0759596 22.0791C0.100684 22.0944 0.129304 22.1022 0.158384 22.1017L0.157576 22.1025ZM18.2812 34.965L11.4756 38.3775C11.423 38.4074 11.3859 38.4599 11.3931 38.5197C11.3931 38.5802 11.4303 38.6327 11.4828 38.6626L18.2739 41.9919C18.2893 41.9919 18.3119 42 18.3345 42C18.3644 42 18.3943 41.9919 18.417 41.9774C18.4392 41.9625 18.4576 41.9424 18.4705 41.919C18.4834 41.8955 18.4906 41.8693 18.4913 41.8425L18.5067 35.0999C18.5058 35.073 18.4986 35.0468 18.4855 35.0233C18.4724 34.9998 18.4539 34.9798 18.4315 34.965C18.408 34.9539 18.3824 34.9481 18.3564 34.9481C18.3304 34.9481 18.3047 34.9539 18.2812 34.965Z" fill="#EE4122"/>
<path d="M10.1939 16.9575C10.1715 16.9427 10.1529 16.9227 10.1398 16.8993C10.1268 16.8758 10.1195 16.8495 10.1188 16.8226V10.1624C10.1188 10.1099 10.1487 10.0574 10.1939 10.0275C10.2161 10.0135 10.2415 10.0054 10.2676 10.004C10.2938 10.0026 10.3199 10.0079 10.3434 10.0194L17.1273 13.3794C17.1541 13.3925 17.1768 13.4128 17.1926 13.438C17.2085 13.4633 17.2169 13.4925 17.217 13.5224C17.217 13.5822 17.1798 13.6355 17.1273 13.6645L10.3434 16.972C10.322 16.9807 10.2994 16.9858 10.2763 16.9874C10.2465 16.9793 10.2166 16.972 10.1939 16.9575ZM10.2763 26.9995C10.2993 26.9983 10.322 26.9934 10.3434 26.985L17.1499 23.7147C17.1757 23.7025 17.1977 23.6835 17.2135 23.6597C17.2293 23.6359 17.2383 23.6083 17.2396 23.5798C17.2399 23.5509 17.2324 23.5224 17.2179 23.4974C17.2034 23.4724 17.1824 23.4517 17.1572 23.4376L10.3515 19.9645C10.3275 19.9533 10.3011 19.9482 10.2746 19.9499C10.2482 19.9515 10.2225 19.9598 10.2001 19.974C10.1777 19.9882 10.1593 20.0078 10.1465 20.031C10.1337 20.0541 10.1269 20.0802 10.1269 20.1067V26.8501C10.1269 26.9026 10.1568 26.9551 10.2012 26.985C10.2166 26.9931 10.2465 26.9995 10.2763 26.9995ZM27.0966 28.4251L20.4477 25.1023C20.4237 25.091 20.3972 25.0859 20.3708 25.0876C20.3443 25.0892 20.3187 25.0975 20.2963 25.1117C20.2739 25.1259 20.2554 25.1455 20.2426 25.1687C20.2298 25.1919 20.2231 25.2179 20.223 25.2444V31.8295C20.223 31.882 20.2529 31.9345 20.2982 31.9644C20.3229 31.9798 20.3515 31.9876 20.3806 31.987C20.4036 31.9858 20.4262 31.9809 20.4477 31.9725L27.0966 28.7094C27.1224 28.6972 27.1444 28.6782 27.1602 28.6545C27.176 28.6307 27.185 28.6031 27.1863 28.5745C27.1863 28.4994 27.1491 28.4477 27.0966 28.4251ZM20.3806 12.037C20.4036 12.0358 20.4262 12.0309 20.4477 12.0225L27.1491 8.65443C27.2016 8.63262 27.2315 8.57204 27.2315 8.51954C27.2318 8.49063 27.2243 8.46216 27.2098 8.43714C27.1953 8.41212 27.1743 8.39148 27.1491 8.37739L20.4477 4.90431C20.4241 4.89279 20.398 4.88749 20.3719 4.8889C20.3457 4.89032 20.3203 4.8984 20.2982 4.91239C20.2757 4.92718 20.2572 4.94716 20.2441 4.97064C20.231 4.99412 20.2238 5.02041 20.223 5.04727V11.8876C20.223 11.9401 20.2529 11.9926 20.2982 12.0225C20.3246 12.0319 20.3525 12.0368 20.3806 12.037ZM28.3854 0.0226181C28.3633 0.00863156 28.3379 0.000546535 28.3117 -0.000867269C28.2856 -0.00228107 28.2595 0.0030234 28.2359 0.0145411L21.5644 3.26308C21.5386 3.27526 21.5166 3.29427 21.5008 3.31804C21.485 3.34181 21.476 3.36945 21.4747 3.39796C21.4743 3.427 21.4818 3.4556 21.4963 3.48076C21.5108 3.50592 21.5318 3.5267 21.5572 3.54093L28.2279 6.99785C28.2505 7.01319 28.2731 7.01319 28.303 7.01319C28.3329 7.01319 28.3628 7.00512 28.3854 6.99058C28.4085 6.97644 28.4275 6.9566 28.4407 6.93297C28.4538 6.90935 28.4607 6.88273 28.4606 6.85569V0.157503C28.4598 0.130638 28.4526 0.104351 28.4395 0.0808709C28.4264 0.0573906 28.4079 0.0374085 28.3854 0.0226181ZM18.2812 15.0069L11.4683 18.3217C11.4415 18.3347 11.419 18.3548 11.4031 18.38C11.3873 18.4051 11.3788 18.4341 11.3786 18.4638C11.3782 18.4929 11.3856 18.5215 11.4001 18.5466C11.4146 18.5718 11.4357 18.5926 11.461 18.6068L18.2739 22.0791C18.2966 22.0936 18.3192 22.0936 18.3418 22.0936C18.3708 22.0942 18.3993 22.0866 18.4242 22.0718C18.4473 22.0575 18.4662 22.0375 18.4792 22.0137C18.4922 21.9899 18.4989 21.9632 18.4986 21.9361V15.1491C18.4978 15.1223 18.4907 15.0961 18.4778 15.0726C18.4648 15.0492 18.4465 15.0291 18.4242 15.0142C18.3862 14.9843 18.3337 14.9851 18.2812 15.0069ZM28.2287 19.9718L21.5345 23.4441C21.5093 23.4582 21.4883 23.4788 21.4738 23.5038C21.4593 23.5289 21.4518 23.5573 21.4521 23.5862C21.4521 23.6468 21.4893 23.6993 21.5418 23.7219L28.2359 27.0666C28.2595 27.0781 28.2855 27.0834 28.3116 27.0822C28.3378 27.0809 28.3632 27.073 28.3854 27.0593C28.4078 27.0445 28.4264 27.0245 28.4394 27.001C28.4525 26.9775 28.4598 26.9513 28.4606 26.9244V20.1067C28.4598 20.0798 28.4526 20.0535 28.4395 20.0301C28.4264 20.0066 28.4079 19.9866 28.3854 19.9718C28.3607 19.9606 28.3338 19.9549 28.3067 19.9549C28.2795 19.9549 28.2534 19.9606 28.2287 19.9718ZM18.5058 5.03193C18.5052 5.00492 18.4981 4.97847 18.485 4.95484C18.4719 4.93121 18.4533 4.9111 18.4307 4.89623C18.4084 4.88223 18.3828 4.87421 18.3565 4.87293C18.3302 4.87166 18.304 4.87718 18.2804 4.88896L11.4521 8.36931C11.4268 8.3834 11.4059 8.40405 11.3913 8.42906C11.3768 8.45408 11.3694 8.48255 11.3697 8.51146C11.3697 8.57123 11.4077 8.62454 11.4602 8.65443L18.2885 12.029C18.3099 12.0376 18.3325 12.0428 18.3555 12.0443C18.3846 12.0447 18.4132 12.0369 18.438 12.0217C18.461 12.0076 18.48 11.9877 18.4932 11.9641C18.5064 11.9405 18.5132 11.9138 18.5131 11.8868V7.01239L18.505 5.03273L18.5058 5.03193ZM18.2804 25.0716L11.5046 28.3347C11.4789 28.3468 11.457 28.3657 11.4412 28.3893C11.4254 28.4129 11.4163 28.4404 11.4149 28.4687C11.4149 28.5293 11.4448 28.5818 11.5046 28.6117L18.2812 31.9636C18.3026 31.9725 18.3252 31.978 18.3483 31.9798C18.369 31.9798 18.3895 31.9757 18.4086 31.9678C18.4277 31.9599 18.4451 31.9483 18.4597 31.9336C18.4743 31.919 18.4859 31.9017 18.4938 31.8825C18.5018 31.8634 18.5058 31.843 18.5058 31.8223V25.2137C18.505 25.1869 18.4978 25.1606 18.4847 25.1372C18.4716 25.1137 18.4531 25.0937 18.4307 25.0788C18.3854 25.049 18.3337 25.049 18.2804 25.0716Z" fill="#0094DA"/>
<path d="M81.5741 28.5148V11.8795H92.7572V14.9552H84.977L84.9616 18.7199H90.1713V21.6147H84.9616L84.977 25.4399H92.7572V28.5148H81.5741ZM110.792 20.1972C110.754 17.812 111.623 15.7645 113.385 14.0619C115.147 12.3601 117.238 11.5274 119.659 11.5799C121.24 11.5799 122.664 11.9474 123.954 12.6751C125.224 13.3914 126.274 14.4417 126.99 15.712L124.419 17.5269C123.227 15.6595 121.638 14.7299 119.659 14.7299C118.115 14.7299 116.833 15.2468 115.821 16.2895C114.802 17.3323 114.3 18.6448 114.3 20.2198C114.3 21.8028 114.809 23.1 115.821 24.1274C116.833 25.1548 118.115 25.6652 119.659 25.6652C121.638 25.6652 123.227 24.7348 124.419 22.8674L126.99 24.6823C126.284 25.9552 125.238 27.0068 123.968 27.7192C122.68 28.4469 121.233 28.8144 119.636 28.8144C117.2 28.8669 115.109 28.035 113.355 26.3324C111.594 24.6298 110.739 22.5823 110.792 20.1972ZM129.725 21.4798V11.7301H133.128V21.735C133.128 22.928 133.466 23.8576 134.133 24.5175C134.807 25.1847 135.684 25.515 136.779 25.515C137.888 25.515 138.773 25.1847 139.432 24.5175C140.091 23.8576 140.429 22.928 140.429 21.735V11.7301H143.832V21.4798C143.832 23.6476 143.165 25.3874 141.846 26.6926C140.519 28.0051 138.832 28.6577 136.786 28.6577C134.718 28.6577 133.031 28.0051 131.712 26.6926C130.385 25.3874 129.725 23.6476 129.725 21.4798ZM151.26 28.5148V14.9552H145.946V11.8803H160V14.9552H154.663V28.5148H151.26ZM105.327 21.9902C106.249 21.5403 106.969 20.895 107.479 20.0623C107.988 19.2304 108.243 18.2926 108.243 17.2499C108.243 15.6523 107.681 14.3624 106.557 13.373C105.432 12.3827 103.993 11.8868 102.254 11.8868H96.0105V28.5148H99.4133V14.8801H102.262C103.019 14.8801 103.626 15.0982 104.091 15.5327C104.555 15.9673 104.78 16.5375 104.78 17.2426C104.78 17.9623 104.555 18.5479 104.113 18.9824C103.671 19.4177 103.049 19.635 102.262 19.635H99.6832V19.6495L106.219 28.5075H110.049L105.327 21.9902ZM36.9608 28.5826V11.7745H40.4008V25.4779H47.7616V28.5826H36.9608ZM61.6509 28.5826L60.7135 26.3922H53.84L52.8962 28.5826H49.2008L56.7111 11.4676H57.8586L65.3463 28.5826H61.6509ZM59.5144 23.5652L57.2735 17.8872L55.0319 23.5652H59.5144ZM66.3354 25.1701L68.7038 23.3851C69.8885 25.0126 71.2671 25.83 72.8267 25.83C73.5758 25.83 74.1608 25.6652 74.5802 25.3349C75.0085 25.0045 75.2178 24.5474 75.2178 23.9699C75.2178 23.4974 75.0756 23.1218 74.783 22.8601C74.4978 22.5976 73.9281 22.2673 73.0739 21.8772L71.2671 21.0598C68.5544 19.8523 67.1976 18.2401 67.1976 16.2217C67.1976 14.7977 67.7228 13.6427 68.779 12.7728C69.8287 11.8949 71.1628 11.4595 72.7741 11.4595C74.0331 11.4595 75.1354 11.7447 76.0873 12.3149C77.0308 12.8765 77.805 13.6824 78.3281 14.6475L75.9895 16.4551C75.1273 15.1652 74.0558 14.5199 72.7814 14.5199C72.1746 14.5199 71.6719 14.6628 71.2824 14.9552C70.8929 15.2476 70.6982 15.645 70.6982 16.1547C70.6982 16.5827 70.8404 16.9195 71.1176 17.1901C71.3948 17.4526 71.9119 17.7523 72.6537 18.0972L74.5657 18.9372C76.0041 19.5825 77.0618 20.2795 77.7212 21.0372C78.3806 21.7948 78.7103 22.7325 78.7103 23.8503C78.7103 25.3648 78.156 26.5803 77.0537 27.5027C75.9523 28.4251 74.543 28.8904 72.8267 28.8904C71.4174 28.8904 70.1503 28.5592 69.019 27.9001C67.9018 27.2396 66.9769 26.2984 66.3362 25.1701H66.3354Z" fill="black"/>
</g>
</g>
<defs>
<clipPath id="clip0_1_856">
<rect width="160" height="42" fill="white"/>
</clipPath>
</defs>
</svg>
