<svg width="21" height="32" fill="none" xmlns="http://www.w3.org/2000/svg"><path d="M12.726 24.706a.124.124 0 00-.067-.106l-5.027-2.486a.113.113 0 00-.11.006.124.124 0 00-.056.1v5.01c0 .04.022.078.055.1a.111.111 0 00.061.017.16.16 0 00.05-.012l5.027-2.524a.124.124 0 00.067-.105zM6.145 7.404a.116.116 0 01.055.1v4.916a.124.124 0 01-.055.1.111.111 0 01-.061.016.16.16 0 01-.05-.01l-5.016-2.443a.117.117 0 01-.067-.105c0-.044.022-.083.067-.105l5.016-2.48a.155.155 0 01.11.01zm-.11 7.336l-5.028 2.563a.119.119 0 00-.061.105.11.11 0 00.066.1l5.028 2.42a.108.108 0 00.044.005.111.111 0 00.06-.016.124.124 0 00.056-.1v-4.978a.124.124 0 00-.055-.1c-.033-.016-.078-.021-.11 0zM.115 8.899a.161.161 0 00.05-.012l5.05-2.491a.117.117 0 00.066-.105.119.119 0 00-.06-.105L.165 3.61a.113.113 0 00-.11.005.124.124 0 00-.056.1v5.066c0 .039.022.078.055.1a.111.111 0 00.061.017zm5.138 12.125a.124.124 0 00-.066-.105L.166 18.51a.113.113 0 00-.11.006.116.116 0 00-.056.1v4.95c0 .038.022.077.055.1a.112.112 0 00.061.016c.017 0 .033-.006.05-.011l5.022-2.536a.122.122 0 00.066-.111zm.78 1.102L.996 24.667a.119.119 0 00-.061.105c0 .045.027.084.066.106l5.039 2.469c.016.005.033.011.05.011a.112.112 0 00.06-.017.116.116 0 00.056-.1v-5.01a.124.124 0 00-.056-.1.124.124 0 00-.116-.005zM.116 16.318a.16.16 0 00.05-.011l5.038-2.57a.119.119 0 00.061-.104.124.124 0 00-.066-.106L.166 11.08a.116.116 0 00-.166.105v5.016c0 .04.022.078.055.1a.111.111 0 00.061.017zm13.374 9.495l-5.022 2.52c-.04.022-.067.06-.061.105 0 .044.027.083.066.105L13.484 31c.011 0 .028.006.044.006a.111.111 0 00.061-.017.124.124 0 00.056-.1l.01-4.977a.124.124 0 00-.055-.1.129.129 0 00-.11 0z" fill="#EE4122"/><path d="M7.521 12.52a.124.124 0 01-.055-.1V7.503c0-.039.022-.077.055-.1a.113.113 0 01.111-.005l5.005 2.48c.04.017.067.061.067.106a.124.124 0 01-.067.105L7.632 12.53a.16.16 0 01-.05.011.199.199 0 01-.06-.022zm.061 7.413c.017 0 .033-.006.05-.011l5.022-2.414a.116.116 0 00.066-.1.119.119 0 00-.06-.105L7.637 14.74a.113.113 0 00-.111.005.116.116 0 00-.055.1v4.977c0 .04.022.078.055.1a.14.14 0 00.055.011zm12.411 1.052l-4.905-2.453a.113.113 0 00-.111.006.116.116 0 00-.055.1v4.86c0 .04.022.078.055.1a.111.111 0 00.06.017.16.16 0 00.05-.011l4.906-2.409a.116.116 0 00.067-.1c0-.055-.028-.093-.067-.11zM15.038 8.887c.016 0 .033-.005.05-.01l4.944-2.487c.039-.016.06-.06.06-.1a.119.119 0 00-.06-.105l-4.944-2.563a.113.113 0 00-.111.005.124.124 0 00-.055.1v5.05c0 .038.022.077.055.1a.198.198 0 00.06.01zm5.907-8.87a.113.113 0 00-.111-.005l-4.922 2.397a.116.116 0 00-.067.1c0 .044.022.083.061.105l4.922 2.553c.017.01.034.01.056.01a.111.111 0 00.06-.016.116.116 0 00.056-.1V.117a.124.124 0 00-.055-.1zM13.489 11.08l-5.027 2.447a.118.118 0 00-.067.105c0 .045.022.083.061.105l5.028 2.564c.016.011.033.011.05.011a.111.111 0 00.06-.017.116.116 0 00.056-.1v-5.01a.124.124 0 00-.056-.1c-.027-.022-.066-.022-.105-.005zm7.34 3.665l-4.94 2.564a.119.119 0 00-.06.105.11.11 0 00.066.1l4.939 2.469c.017.005.033.011.05.011a.112.112 0 00.06-.017.124.124 0 00.056-.1v-5.032a.124.124 0 00-.055-.1.142.142 0 00-.117 0zm-7.174-11.03a.124.124 0 00-.055-.099.113.113 0 00-.11-.005L8.45 6.18a.119.119 0 00-.06.105c0 .044.027.083.066.105l5.039 2.492a.17.17 0 00.05.01.112.112 0 00.06-.016.116.116 0 00.056-.1V5.178l-.006-1.462zm-.166 14.795l-5 2.409a.116.116 0 00-.066.1c0 .044.022.082.066.105l5 2.474c.017.006.033.012.05.012a.112.112 0 00.06-.017.116.116 0 00.056-.1v-4.878a.124.124 0 00-.055-.1.116.116 0 00-.11-.005z" fill="#0094DA"/></svg>